<mxfile host="app.diagrams.net" agent="Mozilla/5.0 (X11; Linux x86_64) AppleWebKit/537.36 (KHTML, like Gecko) Chrome/124.0.0.0 Safari/537.36" version="24.7.12">
  <diagram name="Page-1" id="YU2orqVqRh5AFUmn3edb">
    <mxGraphModel dx="1434" dy="711" grid="1" gridSize="10" guides="1" tooltips="1" connect="1" arrows="1" fold="1" page="1" pageScale="1" pageWidth="850" pageHeight="1100" math="0" shadow="0">
      <root>
        <mxCell id="0" />
        <mxCell id="1" parent="0" />
        <mxCell id="9KgocrcduUoIsVicRkIH-1" value="CustomUser" style="shape=table;startSize=25;container=1;collapsible=0;childLayout=tableLayout;fixedRows=1;rowLines=1;fontStyle=1;align=center;resizeLast=1;" vertex="1" parent="1">
          <mxGeometry x="225" y="120" width="148" height="214" as="geometry" />
        </mxCell>
        <mxCell id="9KgocrcduUoIsVicRkIH-2" style="shape=tableRow;horizontal=0;startSize=0;swimlaneHead=0;swimlaneBody=0;fillColor=none;collapsible=0;dropTarget=0;points=[[0,0.5],[1,0.5]];portConstraint=eastwest;top=0;left=0;right=0;bottom=0;" vertex="1" parent="9KgocrcduUoIsVicRkIH-1">
          <mxGeometry y="25" width="148" height="21" as="geometry" />
        </mxCell>
        <mxCell id="9KgocrcduUoIsVicRkIH-3" value="int" style="shape=partialRectangle;connectable=0;fillColor=none;top=0;left=0;bottom=0;right=0;align=left;spacingLeft=2;overflow=hidden;fontSize=11;" vertex="1" parent="9KgocrcduUoIsVicRkIH-2">
          <mxGeometry width="48" height="21" as="geometry">
            <mxRectangle width="48" height="21" as="alternateBounds" />
          </mxGeometry>
        </mxCell>
        <mxCell id="9KgocrcduUoIsVicRkIH-4" value="id" style="shape=partialRectangle;connectable=0;fillColor=none;top=0;left=0;bottom=0;right=0;align=left;spacingLeft=2;overflow=hidden;fontSize=11;" vertex="1" parent="9KgocrcduUoIsVicRkIH-2">
          <mxGeometry x="48" width="100" height="21" as="geometry">
            <mxRectangle width="100" height="21" as="alternateBounds" />
          </mxGeometry>
        </mxCell>
        <mxCell id="9KgocrcduUoIsVicRkIH-5" style="shape=tableRow;horizontal=0;startSize=0;swimlaneHead=0;swimlaneBody=0;fillColor=none;collapsible=0;dropTarget=0;points=[[0,0.5],[1,0.5]];portConstraint=eastwest;top=0;left=0;right=0;bottom=0;" vertex="1" parent="9KgocrcduUoIsVicRkIH-1">
          <mxGeometry y="46" width="148" height="21" as="geometry" />
        </mxCell>
        <mxCell id="9KgocrcduUoIsVicRkIH-6" value="string" style="shape=partialRectangle;connectable=0;fillColor=none;top=0;left=0;bottom=0;right=0;align=left;spacingLeft=2;overflow=hidden;fontSize=11;" vertex="1" parent="9KgocrcduUoIsVicRkIH-5">
          <mxGeometry width="48" height="21" as="geometry">
            <mxRectangle width="48" height="21" as="alternateBounds" />
          </mxGeometry>
        </mxCell>
        <mxCell id="9KgocrcduUoIsVicRkIH-7" value="username" style="shape=partialRectangle;connectable=0;fillColor=none;top=0;left=0;bottom=0;right=0;align=left;spacingLeft=2;overflow=hidden;fontSize=11;" vertex="1" parent="9KgocrcduUoIsVicRkIH-5">
          <mxGeometry x="48" width="100" height="21" as="geometry">
            <mxRectangle width="100" height="21" as="alternateBounds" />
          </mxGeometry>
        </mxCell>
        <mxCell id="9KgocrcduUoIsVicRkIH-8" style="shape=tableRow;horizontal=0;startSize=0;swimlaneHead=0;swimlaneBody=0;fillColor=none;collapsible=0;dropTarget=0;points=[[0,0.5],[1,0.5]];portConstraint=eastwest;top=0;left=0;right=0;bottom=0;" vertex="1" parent="9KgocrcduUoIsVicRkIH-1">
          <mxGeometry y="67" width="148" height="21" as="geometry" />
        </mxCell>
        <mxCell id="9KgocrcduUoIsVicRkIH-9" value="string" style="shape=partialRectangle;connectable=0;fillColor=none;top=0;left=0;bottom=0;right=0;align=left;spacingLeft=2;overflow=hidden;fontSize=11;" vertex="1" parent="9KgocrcduUoIsVicRkIH-8">
          <mxGeometry width="48" height="21" as="geometry">
            <mxRectangle width="48" height="21" as="alternateBounds" />
          </mxGeometry>
        </mxCell>
        <mxCell id="9KgocrcduUoIsVicRkIH-10" value="password" style="shape=partialRectangle;connectable=0;fillColor=none;top=0;left=0;bottom=0;right=0;align=left;spacingLeft=2;overflow=hidden;fontSize=11;" vertex="1" parent="9KgocrcduUoIsVicRkIH-8">
          <mxGeometry x="48" width="100" height="21" as="geometry">
            <mxRectangle width="100" height="21" as="alternateBounds" />
          </mxGeometry>
        </mxCell>
        <mxCell id="9KgocrcduUoIsVicRkIH-11" style="shape=tableRow;horizontal=0;startSize=0;swimlaneHead=0;swimlaneBody=0;fillColor=none;collapsible=0;dropTarget=0;points=[[0,0.5],[1,0.5]];portConstraint=eastwest;top=0;left=0;right=0;bottom=0;" vertex="1" parent="9KgocrcduUoIsVicRkIH-1">
          <mxGeometry y="88" width="148" height="21" as="geometry" />
        </mxCell>
        <mxCell id="9KgocrcduUoIsVicRkIH-12" value="string" style="shape=partialRectangle;connectable=0;fillColor=none;top=0;left=0;bottom=0;right=0;align=left;spacingLeft=2;overflow=hidden;fontSize=11;" vertex="1" parent="9KgocrcduUoIsVicRkIH-11">
          <mxGeometry width="48" height="21" as="geometry">
            <mxRectangle width="48" height="21" as="alternateBounds" />
          </mxGeometry>
        </mxCell>
        <mxCell id="9KgocrcduUoIsVicRkIH-13" value="email" style="shape=partialRectangle;connectable=0;fillColor=none;top=0;left=0;bottom=0;right=0;align=left;spacingLeft=2;overflow=hidden;fontSize=11;" vertex="1" parent="9KgocrcduUoIsVicRkIH-11">
          <mxGeometry x="48" width="100" height="21" as="geometry">
            <mxRectangle width="100" height="21" as="alternateBounds" />
          </mxGeometry>
        </mxCell>
        <mxCell id="9KgocrcduUoIsVicRkIH-14" style="shape=tableRow;horizontal=0;startSize=0;swimlaneHead=0;swimlaneBody=0;fillColor=none;collapsible=0;dropTarget=0;points=[[0,0.5],[1,0.5]];portConstraint=eastwest;top=0;left=0;right=0;bottom=0;" vertex="1" parent="9KgocrcduUoIsVicRkIH-1">
          <mxGeometry y="109" width="148" height="21" as="geometry" />
        </mxCell>
        <mxCell id="9KgocrcduUoIsVicRkIH-15" value="string" style="shape=partialRectangle;connectable=0;fillColor=none;top=0;left=0;bottom=0;right=0;align=left;spacingLeft=2;overflow=hidden;fontSize=11;" vertex="1" parent="9KgocrcduUoIsVicRkIH-14">
          <mxGeometry width="48" height="21" as="geometry">
            <mxRectangle width="48" height="21" as="alternateBounds" />
          </mxGeometry>
        </mxCell>
        <mxCell id="9KgocrcduUoIsVicRkIH-16" value="full_name" style="shape=partialRectangle;connectable=0;fillColor=none;top=0;left=0;bottom=0;right=0;align=left;spacingLeft=2;overflow=hidden;fontSize=11;" vertex="1" parent="9KgocrcduUoIsVicRkIH-14">
          <mxGeometry x="48" width="100" height="21" as="geometry">
            <mxRectangle width="100" height="21" as="alternateBounds" />
          </mxGeometry>
        </mxCell>
        <mxCell id="9KgocrcduUoIsVicRkIH-17" style="shape=tableRow;horizontal=0;startSize=0;swimlaneHead=0;swimlaneBody=0;fillColor=none;collapsible=0;dropTarget=0;points=[[0,0.5],[1,0.5]];portConstraint=eastwest;top=0;left=0;right=0;bottom=0;" vertex="1" parent="9KgocrcduUoIsVicRkIH-1">
          <mxGeometry y="130" width="148" height="21" as="geometry" />
        </mxCell>
        <mxCell id="9KgocrcduUoIsVicRkIH-18" value="boolean" style="shape=partialRectangle;connectable=0;fillColor=none;top=0;left=0;bottom=0;right=0;align=left;spacingLeft=2;overflow=hidden;fontSize=11;" vertex="1" parent="9KgocrcduUoIsVicRkIH-17">
          <mxGeometry width="48" height="21" as="geometry">
            <mxRectangle width="48" height="21" as="alternateBounds" />
          </mxGeometry>
        </mxCell>
        <mxCell id="9KgocrcduUoIsVicRkIH-19" value="is_staff" style="shape=partialRectangle;connectable=0;fillColor=none;top=0;left=0;bottom=0;right=0;align=left;spacingLeft=2;overflow=hidden;fontSize=11;" vertex="1" parent="9KgocrcduUoIsVicRkIH-17">
          <mxGeometry x="48" width="100" height="21" as="geometry">
            <mxRectangle width="100" height="21" as="alternateBounds" />
          </mxGeometry>
        </mxCell>
        <mxCell id="9KgocrcduUoIsVicRkIH-20" style="shape=tableRow;horizontal=0;startSize=0;swimlaneHead=0;swimlaneBody=0;fillColor=none;collapsible=0;dropTarget=0;points=[[0,0.5],[1,0.5]];portConstraint=eastwest;top=0;left=0;right=0;bottom=0;" vertex="1" parent="9KgocrcduUoIsVicRkIH-1">
          <mxGeometry y="151" width="148" height="21" as="geometry" />
        </mxCell>
        <mxCell id="9KgocrcduUoIsVicRkIH-21" value="boolean" style="shape=partialRectangle;connectable=0;fillColor=none;top=0;left=0;bottom=0;right=0;align=left;spacingLeft=2;overflow=hidden;fontSize=11;" vertex="1" parent="9KgocrcduUoIsVicRkIH-20">
          <mxGeometry width="48" height="21" as="geometry">
            <mxRectangle width="48" height="21" as="alternateBounds" />
          </mxGeometry>
        </mxCell>
        <mxCell id="9KgocrcduUoIsVicRkIH-22" value="is_active" style="shape=partialRectangle;connectable=0;fillColor=none;top=0;left=0;bottom=0;right=0;align=left;spacingLeft=2;overflow=hidden;fontSize=11;" vertex="1" parent="9KgocrcduUoIsVicRkIH-20">
          <mxGeometry x="48" width="100" height="21" as="geometry">
            <mxRectangle width="100" height="21" as="alternateBounds" />
          </mxGeometry>
        </mxCell>
        <mxCell id="9KgocrcduUoIsVicRkIH-23" style="shape=tableRow;horizontal=0;startSize=0;swimlaneHead=0;swimlaneBody=0;fillColor=none;collapsible=0;dropTarget=0;points=[[0,0.5],[1,0.5]];portConstraint=eastwest;top=0;left=0;right=0;bottom=0;" vertex="1" parent="9KgocrcduUoIsVicRkIH-1">
          <mxGeometry y="172" width="148" height="21" as="geometry" />
        </mxCell>
        <mxCell id="9KgocrcduUoIsVicRkIH-24" value="datetime" style="shape=partialRectangle;connectable=0;fillColor=none;top=0;left=0;bottom=0;right=0;align=left;spacingLeft=2;overflow=hidden;fontSize=11;" vertex="1" parent="9KgocrcduUoIsVicRkIH-23">
          <mxGeometry width="48" height="21" as="geometry">
            <mxRectangle width="48" height="21" as="alternateBounds" />
          </mxGeometry>
        </mxCell>
        <mxCell id="9KgocrcduUoIsVicRkIH-25" value="date_joined" style="shape=partialRectangle;connectable=0;fillColor=none;top=0;left=0;bottom=0;right=0;align=left;spacingLeft=2;overflow=hidden;fontSize=11;" vertex="1" parent="9KgocrcduUoIsVicRkIH-23">
          <mxGeometry x="48" width="100" height="21" as="geometry">
            <mxRectangle width="100" height="21" as="alternateBounds" />
          </mxGeometry>
        </mxCell>
        <mxCell id="9KgocrcduUoIsVicRkIH-26" style="shape=tableRow;horizontal=0;startSize=0;swimlaneHead=0;swimlaneBody=0;fillColor=none;collapsible=0;dropTarget=0;points=[[0,0.5],[1,0.5]];portConstraint=eastwest;top=0;left=0;right=0;bottom=0;" vertex="1" parent="9KgocrcduUoIsVicRkIH-1">
          <mxGeometry y="193" width="148" height="21" as="geometry" />
        </mxCell>
        <mxCell id="9KgocrcduUoIsVicRkIH-27" value="string" style="shape=partialRectangle;connectable=0;fillColor=none;top=0;left=0;bottom=0;right=0;align=left;spacingLeft=2;overflow=hidden;fontSize=11;" vertex="1" parent="9KgocrcduUoIsVicRkIH-26">
          <mxGeometry width="48" height="21" as="geometry">
            <mxRectangle width="48" height="21" as="alternateBounds" />
          </mxGeometry>
        </mxCell>
        <mxCell id="9KgocrcduUoIsVicRkIH-28" value="profile_picture" style="shape=partialRectangle;connectable=0;fillColor=none;top=0;left=0;bottom=0;right=0;align=left;spacingLeft=2;overflow=hidden;fontSize=11;" vertex="1" parent="9KgocrcduUoIsVicRkIH-26">
          <mxGeometry x="48" width="100" height="21" as="geometry">
            <mxRectangle width="100" height="21" as="alternateBounds" />
          </mxGeometry>
        </mxCell>
        <mxCell id="9KgocrcduUoIsVicRkIH-29" value="BorrowedBook" style="shape=table;startSize=25;container=1;collapsible=0;childLayout=tableLayout;fixedRows=1;rowLines=1;fontStyle=1;align=center;resizeLast=1;" vertex="1" parent="1">
          <mxGeometry x="355" y="433" width="137" height="151" as="geometry" />
        </mxCell>
        <mxCell id="9KgocrcduUoIsVicRkIH-30" style="shape=tableRow;horizontal=0;startSize=0;swimlaneHead=0;swimlaneBody=0;fillColor=none;collapsible=0;dropTarget=0;points=[[0,0.5],[1,0.5]];portConstraint=eastwest;top=0;left=0;right=0;bottom=0;" vertex="1" parent="9KgocrcduUoIsVicRkIH-29">
          <mxGeometry y="25" width="137" height="21" as="geometry" />
        </mxCell>
        <mxCell id="9KgocrcduUoIsVicRkIH-31" value="int" style="shape=partialRectangle;connectable=0;fillColor=none;top=0;left=0;bottom=0;right=0;align=left;spacingLeft=2;overflow=hidden;fontSize=11;" vertex="1" parent="9KgocrcduUoIsVicRkIH-30">
          <mxGeometry width="36" height="21" as="geometry">
            <mxRectangle width="36" height="21" as="alternateBounds" />
          </mxGeometry>
        </mxCell>
        <mxCell id="9KgocrcduUoIsVicRkIH-32" value="id" style="shape=partialRectangle;connectable=0;fillColor=none;top=0;left=0;bottom=0;right=0;align=left;spacingLeft=2;overflow=hidden;fontSize=11;" vertex="1" parent="9KgocrcduUoIsVicRkIH-30">
          <mxGeometry x="36" width="101" height="21" as="geometry">
            <mxRectangle width="101" height="21" as="alternateBounds" />
          </mxGeometry>
        </mxCell>
        <mxCell id="9KgocrcduUoIsVicRkIH-33" style="shape=tableRow;horizontal=0;startSize=0;swimlaneHead=0;swimlaneBody=0;fillColor=none;collapsible=0;dropTarget=0;points=[[0,0.5],[1,0.5]];portConstraint=eastwest;top=0;left=0;right=0;bottom=0;" vertex="1" parent="9KgocrcduUoIsVicRkIH-29">
          <mxGeometry y="46" width="137" height="21" as="geometry" />
        </mxCell>
        <mxCell id="9KgocrcduUoIsVicRkIH-34" value="int" style="shape=partialRectangle;connectable=0;fillColor=none;top=0;left=0;bottom=0;right=0;align=left;spacingLeft=2;overflow=hidden;fontSize=11;" vertex="1" parent="9KgocrcduUoIsVicRkIH-33">
          <mxGeometry width="36" height="21" as="geometry">
            <mxRectangle width="36" height="21" as="alternateBounds" />
          </mxGeometry>
        </mxCell>
        <mxCell id="9KgocrcduUoIsVicRkIH-35" value="user_id" style="shape=partialRectangle;connectable=0;fillColor=none;top=0;left=0;bottom=0;right=0;align=left;spacingLeft=2;overflow=hidden;fontSize=11;" vertex="1" parent="9KgocrcduUoIsVicRkIH-33">
          <mxGeometry x="36" width="101" height="21" as="geometry">
            <mxRectangle width="101" height="21" as="alternateBounds" />
          </mxGeometry>
        </mxCell>
        <mxCell id="9KgocrcduUoIsVicRkIH-36" style="shape=tableRow;horizontal=0;startSize=0;swimlaneHead=0;swimlaneBody=0;fillColor=none;collapsible=0;dropTarget=0;points=[[0,0.5],[1,0.5]];portConstraint=eastwest;top=0;left=0;right=0;bottom=0;" vertex="1" parent="9KgocrcduUoIsVicRkIH-29">
          <mxGeometry y="67" width="137" height="21" as="geometry" />
        </mxCell>
        <mxCell id="9KgocrcduUoIsVicRkIH-37" value="int" style="shape=partialRectangle;connectable=0;fillColor=none;top=0;left=0;bottom=0;right=0;align=left;spacingLeft=2;overflow=hidden;fontSize=11;" vertex="1" parent="9KgocrcduUoIsVicRkIH-36">
          <mxGeometry width="36" height="21" as="geometry">
            <mxRectangle width="36" height="21" as="alternateBounds" />
          </mxGeometry>
        </mxCell>
        <mxCell id="9KgocrcduUoIsVicRkIH-38" value="book_id" style="shape=partialRectangle;connectable=0;fillColor=none;top=0;left=0;bottom=0;right=0;align=left;spacingLeft=2;overflow=hidden;fontSize=11;" vertex="1" parent="9KgocrcduUoIsVicRkIH-36">
          <mxGeometry x="36" width="101" height="21" as="geometry">
            <mxRectangle width="101" height="21" as="alternateBounds" />
          </mxGeometry>
        </mxCell>
        <mxCell id="9KgocrcduUoIsVicRkIH-39" style="shape=tableRow;horizontal=0;startSize=0;swimlaneHead=0;swimlaneBody=0;fillColor=none;collapsible=0;dropTarget=0;points=[[0,0.5],[1,0.5]];portConstraint=eastwest;top=0;left=0;right=0;bottom=0;" vertex="1" parent="9KgocrcduUoIsVicRkIH-29">
          <mxGeometry y="88" width="137" height="21" as="geometry" />
        </mxCell>
        <mxCell id="9KgocrcduUoIsVicRkIH-40" value="date" style="shape=partialRectangle;connectable=0;fillColor=none;top=0;left=0;bottom=0;right=0;align=left;spacingLeft=2;overflow=hidden;fontSize=11;" vertex="1" parent="9KgocrcduUoIsVicRkIH-39">
          <mxGeometry width="36" height="21" as="geometry">
            <mxRectangle width="36" height="21" as="alternateBounds" />
          </mxGeometry>
        </mxCell>
        <mxCell id="9KgocrcduUoIsVicRkIH-41" value="borrowed_date" style="shape=partialRectangle;connectable=0;fillColor=none;top=0;left=0;bottom=0;right=0;align=left;spacingLeft=2;overflow=hidden;fontSize=11;" vertex="1" parent="9KgocrcduUoIsVicRkIH-39">
          <mxGeometry x="36" width="101" height="21" as="geometry">
            <mxRectangle width="101" height="21" as="alternateBounds" />
          </mxGeometry>
        </mxCell>
        <mxCell id="9KgocrcduUoIsVicRkIH-42" style="shape=tableRow;horizontal=0;startSize=0;swimlaneHead=0;swimlaneBody=0;fillColor=none;collapsible=0;dropTarget=0;points=[[0,0.5],[1,0.5]];portConstraint=eastwest;top=0;left=0;right=0;bottom=0;" vertex="1" parent="9KgocrcduUoIsVicRkIH-29">
          <mxGeometry y="109" width="137" height="21" as="geometry" />
        </mxCell>
        <mxCell id="9KgocrcduUoIsVicRkIH-43" value="date" style="shape=partialRectangle;connectable=0;fillColor=none;top=0;left=0;bottom=0;right=0;align=left;spacingLeft=2;overflow=hidden;fontSize=11;" vertex="1" parent="9KgocrcduUoIsVicRkIH-42">
          <mxGeometry width="36" height="21" as="geometry">
            <mxRectangle width="36" height="21" as="alternateBounds" />
          </mxGeometry>
        </mxCell>
        <mxCell id="9KgocrcduUoIsVicRkIH-44" value="return_date" style="shape=partialRectangle;connectable=0;fillColor=none;top=0;left=0;bottom=0;right=0;align=left;spacingLeft=2;overflow=hidden;fontSize=11;" vertex="1" parent="9KgocrcduUoIsVicRkIH-42">
          <mxGeometry x="36" width="101" height="21" as="geometry">
            <mxRectangle width="101" height="21" as="alternateBounds" />
          </mxGeometry>
        </mxCell>
        <mxCell id="9KgocrcduUoIsVicRkIH-45" style="shape=tableRow;horizontal=0;startSize=0;swimlaneHead=0;swimlaneBody=0;fillColor=none;collapsible=0;dropTarget=0;points=[[0,0.5],[1,0.5]];portConstraint=eastwest;top=0;left=0;right=0;bottom=0;" vertex="1" parent="9KgocrcduUoIsVicRkIH-29">
          <mxGeometry y="130" width="137" height="21" as="geometry" />
        </mxCell>
        <mxCell id="9KgocrcduUoIsVicRkIH-46" value="string" style="shape=partialRectangle;connectable=0;fillColor=none;top=0;left=0;bottom=0;right=0;align=left;spacingLeft=2;overflow=hidden;fontSize=11;" vertex="1" parent="9KgocrcduUoIsVicRkIH-45">
          <mxGeometry width="36" height="21" as="geometry">
            <mxRectangle width="36" height="21" as="alternateBounds" />
          </mxGeometry>
        </mxCell>
        <mxCell id="9KgocrcduUoIsVicRkIH-47" value="status" style="shape=partialRectangle;connectable=0;fillColor=none;top=0;left=0;bottom=0;right=0;align=left;spacingLeft=2;overflow=hidden;fontSize=11;" vertex="1" parent="9KgocrcduUoIsVicRkIH-45">
          <mxGeometry x="36" width="101" height="21" as="geometry">
            <mxRectangle width="101" height="21" as="alternateBounds" />
          </mxGeometry>
        </mxCell>
        <mxCell id="9KgocrcduUoIsVicRkIH-48" value="Book" style="shape=table;startSize=25;container=1;collapsible=0;childLayout=tableLayout;fixedRows=1;rowLines=1;fontStyle=1;align=center;resizeLast=1;" vertex="1" parent="1">
          <mxGeometry x="473" y="131" width="152" height="193" as="geometry" />
        </mxCell>
        <mxCell id="9KgocrcduUoIsVicRkIH-49" style="shape=tableRow;horizontal=0;startSize=0;swimlaneHead=0;swimlaneBody=0;fillColor=none;collapsible=0;dropTarget=0;points=[[0,0.5],[1,0.5]];portConstraint=eastwest;top=0;left=0;right=0;bottom=0;" vertex="1" parent="9KgocrcduUoIsVicRkIH-48">
          <mxGeometry y="25" width="152" height="21" as="geometry" />
        </mxCell>
        <mxCell id="9KgocrcduUoIsVicRkIH-50" value="int" style="shape=partialRectangle;connectable=0;fillColor=none;top=0;left=0;bottom=0;right=0;align=left;spacingLeft=2;overflow=hidden;fontSize=11;" vertex="1" parent="9KgocrcduUoIsVicRkIH-49">
          <mxGeometry width="36" height="21" as="geometry">
            <mxRectangle width="36" height="21" as="alternateBounds" />
          </mxGeometry>
        </mxCell>
        <mxCell id="9KgocrcduUoIsVicRkIH-51" value="id" style="shape=partialRectangle;connectable=0;fillColor=none;top=0;left=0;bottom=0;right=0;align=left;spacingLeft=2;overflow=hidden;fontSize=11;" vertex="1" parent="9KgocrcduUoIsVicRkIH-49">
          <mxGeometry x="36" width="116" height="21" as="geometry">
            <mxRectangle width="116" height="21" as="alternateBounds" />
          </mxGeometry>
        </mxCell>
        <mxCell id="9KgocrcduUoIsVicRkIH-52" style="shape=tableRow;horizontal=0;startSize=0;swimlaneHead=0;swimlaneBody=0;fillColor=none;collapsible=0;dropTarget=0;points=[[0,0.5],[1,0.5]];portConstraint=eastwest;top=0;left=0;right=0;bottom=0;" vertex="1" parent="9KgocrcduUoIsVicRkIH-48">
          <mxGeometry y="46" width="152" height="21" as="geometry" />
        </mxCell>
        <mxCell id="9KgocrcduUoIsVicRkIH-53" value="string" style="shape=partialRectangle;connectable=0;fillColor=none;top=0;left=0;bottom=0;right=0;align=left;spacingLeft=2;overflow=hidden;fontSize=11;" vertex="1" parent="9KgocrcduUoIsVicRkIH-52">
          <mxGeometry width="36" height="21" as="geometry">
            <mxRectangle width="36" height="21" as="alternateBounds" />
          </mxGeometry>
        </mxCell>
        <mxCell id="9KgocrcduUoIsVicRkIH-54" value="title" style="shape=partialRectangle;connectable=0;fillColor=none;top=0;left=0;bottom=0;right=0;align=left;spacingLeft=2;overflow=hidden;fontSize=11;" vertex="1" parent="9KgocrcduUoIsVicRkIH-52">
          <mxGeometry x="36" width="116" height="21" as="geometry">
            <mxRectangle width="116" height="21" as="alternateBounds" />
          </mxGeometry>
        </mxCell>
        <mxCell id="9KgocrcduUoIsVicRkIH-55" style="shape=tableRow;horizontal=0;startSize=0;swimlaneHead=0;swimlaneBody=0;fillColor=none;collapsible=0;dropTarget=0;points=[[0,0.5],[1,0.5]];portConstraint=eastwest;top=0;left=0;right=0;bottom=0;" vertex="1" parent="9KgocrcduUoIsVicRkIH-48">
          <mxGeometry y="67" width="152" height="21" as="geometry" />
        </mxCell>
        <mxCell id="9KgocrcduUoIsVicRkIH-56" value="string" style="shape=partialRectangle;connectable=0;fillColor=none;top=0;left=0;bottom=0;right=0;align=left;spacingLeft=2;overflow=hidden;fontSize=11;" vertex="1" parent="9KgocrcduUoIsVicRkIH-55">
          <mxGeometry width="36" height="21" as="geometry">
            <mxRectangle width="36" height="21" as="alternateBounds" />
          </mxGeometry>
        </mxCell>
        <mxCell id="9KgocrcduUoIsVicRkIH-57" value="author" style="shape=partialRectangle;connectable=0;fillColor=none;top=0;left=0;bottom=0;right=0;align=left;spacingLeft=2;overflow=hidden;fontSize=11;" vertex="1" parent="9KgocrcduUoIsVicRkIH-55">
          <mxGeometry x="36" width="116" height="21" as="geometry">
            <mxRectangle width="116" height="21" as="alternateBounds" />
          </mxGeometry>
        </mxCell>
        <mxCell id="9KgocrcduUoIsVicRkIH-58" style="shape=tableRow;horizontal=0;startSize=0;swimlaneHead=0;swimlaneBody=0;fillColor=none;collapsible=0;dropTarget=0;points=[[0,0.5],[1,0.5]];portConstraint=eastwest;top=0;left=0;right=0;bottom=0;" vertex="1" parent="9KgocrcduUoIsVicRkIH-48">
          <mxGeometry y="88" width="152" height="21" as="geometry" />
        </mxCell>
        <mxCell id="9KgocrcduUoIsVicRkIH-59" value="string" style="shape=partialRectangle;connectable=0;fillColor=none;top=0;left=0;bottom=0;right=0;align=left;spacingLeft=2;overflow=hidden;fontSize=11;" vertex="1" parent="9KgocrcduUoIsVicRkIH-58">
          <mxGeometry width="36" height="21" as="geometry">
            <mxRectangle width="36" height="21" as="alternateBounds" />
          </mxGeometry>
        </mxCell>
        <mxCell id="9KgocrcduUoIsVicRkIH-60" value="isbn" style="shape=partialRectangle;connectable=0;fillColor=none;top=0;left=0;bottom=0;right=0;align=left;spacingLeft=2;overflow=hidden;fontSize=11;" vertex="1" parent="9KgocrcduUoIsVicRkIH-58">
          <mxGeometry x="36" width="116" height="21" as="geometry">
            <mxRectangle width="116" height="21" as="alternateBounds" />
          </mxGeometry>
        </mxCell>
        <mxCell id="9KgocrcduUoIsVicRkIH-61" style="shape=tableRow;horizontal=0;startSize=0;swimlaneHead=0;swimlaneBody=0;fillColor=none;collapsible=0;dropTarget=0;points=[[0,0.5],[1,0.5]];portConstraint=eastwest;top=0;left=0;right=0;bottom=0;" vertex="1" parent="9KgocrcduUoIsVicRkIH-48">
          <mxGeometry y="109" width="152" height="21" as="geometry" />
        </mxCell>
        <mxCell id="9KgocrcduUoIsVicRkIH-62" value="date" style="shape=partialRectangle;connectable=0;fillColor=none;top=0;left=0;bottom=0;right=0;align=left;spacingLeft=2;overflow=hidden;fontSize=11;" vertex="1" parent="9KgocrcduUoIsVicRkIH-61">
          <mxGeometry width="36" height="21" as="geometry">
            <mxRectangle width="36" height="21" as="alternateBounds" />
          </mxGeometry>
        </mxCell>
        <mxCell id="9KgocrcduUoIsVicRkIH-63" value="publication_date" style="shape=partialRectangle;connectable=0;fillColor=none;top=0;left=0;bottom=0;right=0;align=left;spacingLeft=2;overflow=hidden;fontSize=11;" vertex="1" parent="9KgocrcduUoIsVicRkIH-61">
          <mxGeometry x="36" width="116" height="21" as="geometry">
            <mxRectangle width="116" height="21" as="alternateBounds" />
          </mxGeometry>
        </mxCell>
        <mxCell id="9KgocrcduUoIsVicRkIH-64" style="shape=tableRow;horizontal=0;startSize=0;swimlaneHead=0;swimlaneBody=0;fillColor=none;collapsible=0;dropTarget=0;points=[[0,0.5],[1,0.5]];portConstraint=eastwest;top=0;left=0;right=0;bottom=0;" vertex="1" parent="9KgocrcduUoIsVicRkIH-48">
          <mxGeometry y="130" width="152" height="21" as="geometry" />
        </mxCell>
        <mxCell id="9KgocrcduUoIsVicRkIH-65" value="int" style="shape=partialRectangle;connectable=0;fillColor=none;top=0;left=0;bottom=0;right=0;align=left;spacingLeft=2;overflow=hidden;fontSize=11;" vertex="1" parent="9KgocrcduUoIsVicRkIH-64">
          <mxGeometry width="36" height="21" as="geometry">
            <mxRectangle width="36" height="21" as="alternateBounds" />
          </mxGeometry>
        </mxCell>
        <mxCell id="9KgocrcduUoIsVicRkIH-66" value="quantity" style="shape=partialRectangle;connectable=0;fillColor=none;top=0;left=0;bottom=0;right=0;align=left;spacingLeft=2;overflow=hidden;fontSize=11;" vertex="1" parent="9KgocrcduUoIsVicRkIH-64">
          <mxGeometry x="36" width="116" height="21" as="geometry">
            <mxRectangle width="116" height="21" as="alternateBounds" />
          </mxGeometry>
        </mxCell>
        <mxCell id="9KgocrcduUoIsVicRkIH-67" style="shape=tableRow;horizontal=0;startSize=0;swimlaneHead=0;swimlaneBody=0;fillColor=none;collapsible=0;dropTarget=0;points=[[0,0.5],[1,0.5]];portConstraint=eastwest;top=0;left=0;right=0;bottom=0;" vertex="1" parent="9KgocrcduUoIsVicRkIH-48">
          <mxGeometry y="151" width="152" height="21" as="geometry" />
        </mxCell>
        <mxCell id="9KgocrcduUoIsVicRkIH-68" value="int" style="shape=partialRectangle;connectable=0;fillColor=none;top=0;left=0;bottom=0;right=0;align=left;spacingLeft=2;overflow=hidden;fontSize=11;" vertex="1" parent="9KgocrcduUoIsVicRkIH-67">
          <mxGeometry width="36" height="21" as="geometry">
            <mxRectangle width="36" height="21" as="alternateBounds" />
          </mxGeometry>
        </mxCell>
        <mxCell id="9KgocrcduUoIsVicRkIH-69" value="available_quantity" style="shape=partialRectangle;connectable=0;fillColor=none;top=0;left=0;bottom=0;right=0;align=left;spacingLeft=2;overflow=hidden;fontSize=11;" vertex="1" parent="9KgocrcduUoIsVicRkIH-67">
          <mxGeometry x="36" width="116" height="21" as="geometry">
            <mxRectangle width="116" height="21" as="alternateBounds" />
          </mxGeometry>
        </mxCell>
        <mxCell id="9KgocrcduUoIsVicRkIH-70" style="shape=tableRow;horizontal=0;startSize=0;swimlaneHead=0;swimlaneBody=0;fillColor=none;collapsible=0;dropTarget=0;points=[[0,0.5],[1,0.5]];portConstraint=eastwest;top=0;left=0;right=0;bottom=0;" vertex="1" parent="9KgocrcduUoIsVicRkIH-48">
          <mxGeometry y="172" width="152" height="21" as="geometry" />
        </mxCell>
        <mxCell id="9KgocrcduUoIsVicRkIH-71" value="string" style="shape=partialRectangle;connectable=0;fillColor=none;top=0;left=0;bottom=0;right=0;align=left;spacingLeft=2;overflow=hidden;fontSize=11;" vertex="1" parent="9KgocrcduUoIsVicRkIH-70">
          <mxGeometry width="36" height="21" as="geometry">
            <mxRectangle width="36" height="21" as="alternateBounds" />
          </mxGeometry>
        </mxCell>
        <mxCell id="9KgocrcduUoIsVicRkIH-72" value="image" style="shape=partialRectangle;connectable=0;fillColor=none;top=0;left=0;bottom=0;right=0;align=left;spacingLeft=2;overflow=hidden;fontSize=11;" vertex="1" parent="9KgocrcduUoIsVicRkIH-70">
          <mxGeometry x="36" width="116" height="21" as="geometry">
            <mxRectangle width="116" height="21" as="alternateBounds" />
          </mxGeometry>
        </mxCell>
        <mxCell id="9KgocrcduUoIsVicRkIH-73" value="borrows" style="curved=1;startArrow=ERmandOne;startSize=10;;endArrow=ERmany;endSize=10;;exitX=0.5;exitY=1;entryX=0;entryY=0.04;rounded=0;" edge="1" parent="1" source="9KgocrcduUoIsVicRkIH-1" target="9KgocrcduUoIsVicRkIH-29">
          <mxGeometry relative="1" as="geometry">
            <Array as="points">
              <mxPoint x="299" y="383" />
            </Array>
          </mxGeometry>
        </mxCell>
        <mxCell id="9KgocrcduUoIsVicRkIH-74" value="is_borrowed" style="curved=1;startArrow=ERmandOne;startSize=10;;endArrow=ERmany;endSize=10;;exitX=0.5;exitY=1;entryX=1.01;entryY=0.04;rounded=0;" edge="1" parent="1" source="9KgocrcduUoIsVicRkIH-48" target="9KgocrcduUoIsVicRkIH-29">
          <mxGeometry relative="1" as="geometry">
            <Array as="points">
              <mxPoint x="549" y="383" />
            </Array>
          </mxGeometry>
        </mxCell>
      </root>
    </mxGraphModel>
  </diagram>
</mxfile>
